# xmcd
#
# Track frame offsets:
#	182
#	29150
#	47647
#	68415
#	90610
#	112852
#	136027
#	158677
#	180685
#	198880
#
# Disc length: 2912 seconds
#
# Revision: 0
# Processed by: cddbd v1.5.1PL2 Copyright (c) Steve Scherf et al.
# Submitted via: EasyCDDAExtractor 9.0.0.1
#
DISCID=770b5e0a
DTITLE=La solucion - La solucion es
DYEAR=1990
DGENRE=salsa
TTITLE0=la vecina
TTITLE1=una canita mas
TTITLE2=ladron de tu amor
TTITLE3=morena consentida
TTITLE4=anonimo a mi vecina
TTITLE5=la rueda
TTITLE6=una canita al aire
TTITLE7=mi vida eres tu
TTITLE8=la cabra y la soga
TTITLE9=amor de tango
EXTD=
EXTT0=
EXTT1=
EXTT2=
EXTT3=
EXTT4=
EXTT5=
EXTT6=
EXTT7=
EXTT8=
EXTT9=
PLAYORDER=
